{
    "asset" : {
        "generator" : "Khronos glTF Blender I/O v0.9.36",
        "version" : "2.0"
    },
    "scene" : 0,
    "scenes" : [
        {
            "name" : "Scene",
            "nodes" : [
                13
            ]
        }
    ],
    "nodes" : [
        {
            "name" : "AR",
            "rotation" : [
                -1.8668765733309556e-07,
                0.8039407134056091,
                -0.5947094559669495,
                -4.4404464460967574e-07
            ],
            "scale" : [
                1,
                0.9999997615814209,
                0.9999998807907104
            ],
            "translation" : [
                6.762981286101422e-10,
                0.41651690006256104,
                -4.4405382482182176e-08
            ]
        },
        {
            "children" : [
                0
            ],
            "name" : "ARH",
            "rotation" : [
                3.3020856449184066e-07,
                0.6471242308616638,
                0.7623845934867859,
                2.8028614451613976e-07
            ],
            "scale" : [
                1,
                0.9999998807907104,
                0.999997079372406
            ],
            "translation" : [
                -0.008256793022155762,
                0.3788800835609436,
                -4.371138828673793e-08
            ]
        },
        {
            "name" : "AL",
            "rotation" : [
                -0.5963410139083862,
                -9.569303927037254e-08,
                -7.1089402808866e-08,
                0.8027312755584717
            ],
            "scale" : [
                1,
                0.9999998807907104,
                0.9999999403953552
            ],
            "translation" : [
                2.1607426958780707e-10,
                0.42705875635147095,
                -1.9685730823226777e-09
            ]
        },
        {
            "children" : [
                2
            ],
            "name" : "ALH",
            "rotation" : [
                -0.7610685229301453,
                7.732769091717273e-08,
                -9.07264521288198e-08,
                0.6486715078353882
            ],
            "translation" : [
                -0.008256793022155762,
                0.3788800835609436,
                -4.371138828673793e-08
            ]
        },
        {
            "name" : "LR",
            "rotation" : [
                -1.7763568394002505e-15,
                3.1786537846301144e-08,
                3.552713678800501e-15,
                1
            ],
            "translation" : [
                -8.88356221917519e-10,
                0.4234236180782318,
                -6.9256778090220905e-09
            ]
        },
        {
            "children" : [
                4
            ],
            "name" : "LRH",
            "rotation" : [
                -8.43215630652594e-09,
                -0.7071068286895752,
                0.7071068286895752,
                -5.338507946817117e-08
            ],
            "translation" : [
                6.749424352747724e-10,
                0.1165212094783783,
                -2.9080489127863984e-08
            ]
        },
        {
            "children" : [
                5
            ],
            "name" : "LRHH",
            "rotation" : [
                -1.1520234011186403e-07,
                -0.7071068286895752,
                0.7071068286895752,
                -5.338509012631221e-08
            ],
            "translation" : [
                -9.3133301071191e-10,
                0.8553364872932434,
                3.774758283725532e-15
            ]
        },
        {
            "name" : "LL",
            "rotation" : [
                -1.7763568394002505e-15,
                -1.2705488150362753e-21,
                -4.235166755755419e-22,
                1
            ],
            "translation" : [
                -9.313225746154785e-10,
                0.4234236180782318,
                1.4901154976598718e-08
            ]
        },
        {
            "children" : [
                7
            ],
            "name" : "LLH",
            "rotation" : [
                -0.7071068286895752,
                1.5072898780347545e-14,
                -5.0242928171856036e-15,
                0.7071068286895752
            ],
            "translation" : [
                -9.3132535017304e-10,
                0.1396988332271576,
                -2.9802322387695312e-08
            ]
        },
        {
            "children" : [
                8
            ],
            "name" : "LLHH",
            "rotation" : [
                0.7071068286895752,
                -8.429371689544496e-08,
                8.429369557916289e-08,
                0.7071068286895752
            ],
            "translation" : [
                -9.3133301071191e-10,
                0.8553364872932434,
                3.774758283725532e-15
            ]
        },
        {
            "children" : [
                6,
                9
            ],
            "name" : "BODY",
            "rotation" : [
                1,
                0,
                1.1920927533992653e-07,
                -2.980232594040899e-08
            ],
            "scale" : [
                1,
                0.9999999403953552,
                0.9999999403953552
            ],
            "translation" : [
                -0.008256793022155762,
                0.3788800835609436,
                -4.371138828673793e-08
            ]
        },
        {
            "name" : "HEAD",
            "translation" : [
                -0.008256793022155762,
                0.3788800835609436,
                -4.371138828673793e-08
            ]
        },
        {
            "mesh" : 0,
            "name" : "Cube",
            "skin" : 0,
            "translation" : [
                0,
                -1.207651138305664,
                0
            ]
        },
        {
            "children" : [
                12,
                1,
                3,
                10,
                11
            ],
            "name" : "Armature",
            "translation" : [
                0,
                1.2137038707733154,
                0
            ]
        }
    ],
    "materials" : [
        {
            "doubleSided" : true,
            "name" : "Material",
            "pbrMetallicRoughness" : {
                "baseColorTexture" : {
                    "index" : 0,
                    "texCoord" : 0
                },
                "metallicFactor" : 0,
                "roughnessFactor" : 0.4000000059604645
            }
        }
    ],
    "meshes" : [
        {
            "name" : "Cube",
            "primitives" : [
                {
                    "attributes" : {
                        "POSITION" : 0,
                        "NORMAL" : 1,
                        "TEXCOORD_0" : 2,
                        "JOINTS_0" : 3,
                        "WEIGHTS_0" : 4
                    },
                    "indices" : 5,
                    "material" : 0
                }
            ]
        }
    ],
    "textures" : [
        {
            "source" : 0
        }
    ],
    "images" : [
        {
            "mimeType" : "image/png",
            "name" : "person",
            "uri" : "../textures/person.png"
        }
    ],
    "skins" : [
        {
            "inverseBindMatrices" : 6,
            "joints" : [
                1,
                0,
                3,
                2,
                10,
                6,
                5,
                4,
                9,
                8,
                7,
                11
            ],
            "name" : "Armature"
        }
    ],
    "accessors" : [
        {
            "bufferView" : 0,
            "componentType" : 5126,
            "count" : 294,
            "max" : [
                0.5598337650299072,
                2.4947803020477295,
                0.6299219131469727
            ],
            "min" : [
                -0.5598337650299072,
                -0.007540076971054077,
                -0.6682828664779663
            ],
            "type" : "VEC3"
        },
        {
            "bufferView" : 1,
            "componentType" : 5126,
            "count" : 294,
            "type" : "VEC3"
        },
        {
            "bufferView" : 2,
            "componentType" : 5126,
            "count" : 294,
            "type" : "VEC2"
        },
        {
            "bufferView" : 3,
            "componentType" : 5123,
            "count" : 294,
            "type" : "VEC4"
        },
        {
            "bufferView" : 4,
            "componentType" : 5126,
            "count" : 294,
            "type" : "VEC4"
        },
        {
            "bufferView" : 5,
            "componentType" : 5123,
            "count" : 480,
            "type" : "SCALAR"
        },
        {
            "bufferView" : 6,
            "componentType" : 5126,
            "count" : 12,
            "type" : "MAT4"
        }
    ],
    "bufferViews" : [
        {
            "buffer" : 0,
            "byteLength" : 3528,
            "byteOffset" : 0
        },
        {
            "buffer" : 0,
            "byteLength" : 3528,
            "byteOffset" : 3528
        },
        {
            "buffer" : 0,
            "byteLength" : 2352,
            "byteOffset" : 7056
        },
        {
            "buffer" : 0,
            "byteLength" : 2352,
            "byteOffset" : 9408
        },
        {
            "buffer" : 0,
            "byteLength" : 4704,
            "byteOffset" : 11760
        },
        {
            "buffer" : 0,
            "byteLength" : 960,
            "byteOffset" : 16464
        },
        {
            "buffer" : 0,
            "byteLength" : 768,
            "byteOffset" : 17424
        }
    ],
    "buffers" : [
        {
            "byteLength" : 18192,
            "uri" : "Person.bin"
        }
    ]
}
